<svg width="445" height="386" viewBox="0 0 445 386" fill="none" xmlns="http://www.w3.org/2000/svg">
<path d="M69.5407 386H5.26758V383.992H53.507H64.2779C67.8954 354.775 78.7977 269.738 84.9489 254.822C91.2422 239.565 97.4645 236.222 104.341 232.633C105.609 231.972 106.896 231.304 108.21 230.551C108.228 230.54 108.242 230.533 108.26 230.523C108.264 230.523 108.267 230.519 108.267 230.519C108.274 230.516 108.278 230.512 108.285 230.508C108.289 230.505 108.292 230.505 108.296 230.501C108.299 230.498 108.306 230.494 108.31 230.494C112.667 227.993 120.005 223.331 127.314 217.28V228.899C123.96 231.319 120.762 233.404 118.025 235.074L117.986 235.099C117.659 235.298 117.336 235.494 117.023 235.682L116.899 235.756C116.615 235.927 116.334 236.094 116.06 236.254L115.854 236.375C115.616 236.513 115.382 236.652 115.154 236.783C115.005 236.869 114.866 236.947 114.724 237.028C114.578 237.11 114.429 237.199 114.291 237.277C114.01 237.434 113.743 237.586 113.484 237.728C112.169 238.457 110.879 239.103 109.614 239.739C102.734 243.204 96.5121 246.434 90.2188 261.179C84.0676 275.594 73.1618 357.763 69.5442 385.993L69.5407 386ZM118 179.301C116.238 178.203 113.477 176.302 110.89 173.772C110.556 173.442 110.154 173.097 109.714 172.731C114.98 168.336 120.026 162.914 122.855 160.384C123.779 159.56 124.646 159.205 125.481 159.205C126.106 159.205 126.714 159.403 127.314 159.752V170.646C125.015 172.731 121.664 176.082 118.004 179.301H118Z" fill="#E3E1E0"/>
<path d="M154.688 160.381C152.624 160.381 148.477 157.748 144.017 154.262C150.392 151.512 156.426 143.414 152.894 143.414C148.199 143.414 132.717 129.799 127.312 123.464C121.907 117.132 98.6415 130.694 92.8137 139.108C92.8137 139.108 85.6391 157.144 92.8137 161.624L92.8208 161.628C91.3035 167.316 90.0206 175.723 94.6083 178.59C101.783 183.074 117.028 165.589 122.855 160.377C128.683 155.165 132.272 168.727 139.714 171.719C147.155 174.71 159.386 160.377 154.692 160.377L154.688 160.381Z" fill="#D28C6F"/>
<path d="M142.165 130.936C139.088 127.429 121.508 108.754 116.174 108.754C99.693 108.754 66.1865 134.887 62.6081 141.908C59.0261 148.929 53.646 165.856 49.2183 183.966C44.7906 202.076 43.7494 220.844 40.871 230.043C37.9926 239.242 33.9771 249.614 24.4607 272.073C19.1908 284.512 8.49459 313.747 -0.00195312 337.358V383.992H64.2711C67.8887 354.775 78.791 269.738 84.9422 254.822C91.2355 239.565 97.4578 236.222 104.334 232.633C109.394 212.977 109.394 203.32 110.883 173.769C107.998 170.944 100.489 166.67 99.6859 162.523C97.703 152.29 92.8062 143.414 113.431 131.284C113.431 131.284 128.47 140.846 133.029 140.323C133.029 140.323 140.36 145.525 143.771 146.9C147.186 148.272 157.062 149.455 158.096 141.371C158.096 141.371 145.235 134.439 142.158 130.932L142.165 130.936Z" fill="#E6AA8D"/>
<path d="M290.085 301.944H139.464C132.751 301.944 127.311 296.504 127.311 289.792V228.899V284.491C127.311 291.203 132.751 296.643 139.464 296.643H279.747C279.879 296.721 280.014 296.795 280.145 296.87C280.341 296.98 280.536 297.09 280.732 297.201C281.027 297.368 281.325 297.531 281.62 297.694C281.808 297.797 281.997 297.904 282.185 298.007C282.508 298.185 282.832 298.355 283.159 298.529C283.315 298.615 283.471 298.696 283.628 298.778C284.1 299.027 284.577 299.272 285.046 299.514C285.145 299.563 285.245 299.613 285.344 299.663C285.724 299.855 286.105 300.047 286.485 300.231C286.659 300.317 286.833 300.402 287.007 300.487C287.309 300.633 287.611 300.778 287.913 300.924C288.102 301.017 288.29 301.105 288.478 301.194C288.77 301.333 289.058 301.468 289.345 301.599C289.53 301.685 289.715 301.77 289.9 301.855C289.964 301.884 290.028 301.912 290.088 301.94L290.085 301.944Z" fill="#E3E1E0"/>
<path d="M308.904 296.643H139.464C132.751 296.643 127.311 291.203 127.311 284.491V33.6303C127.311 26.9184 132.751 21.4786 139.464 21.4786H308.904C315.617 21.4786 321.057 26.9184 321.057 33.6303V284.491C321.057 291.203 315.617 296.643 308.904 296.643Z" fill="#EF7F1A"/>
<path d="M138.529 286.705H309.842V31.4202H138.529V286.705Z" fill="#FEFEFE"/>
<path d="M188.766 85.9535H292.785V77.3443H188.766V85.9535Z" fill="#B4B3B4"/>
<path d="M188.766 101.601H292.785V92.9922H188.766V101.601Z" fill="#D6D4D2"/>
<path d="M154.688 117.246H292.786V108.637H154.688V117.246Z" fill="#D6D4D2"/>
<path d="M188.845 31.4202C188.899 33.8221 190.853 35.7586 193.27 35.7586H255.101C257.518 35.7586 259.472 33.8257 259.526 31.4202H188.842H188.845Z" fill="#D6D4D2"/>
<path d="M224.185 13.3135C222.109 13.3135 220.429 11.6329 220.429 9.55789C220.429 7.48286 222.109 5.80224 224.185 5.80224C226.26 5.80224 227.941 7.48286 227.941 9.55789C227.941 11.6329 226.26 13.3135 224.185 13.3135ZM255.101 9.55789H233.744C233.744 4.27795 229.465 0 224.185 0C218.904 0 214.626 4.27795 214.626 9.55789H193.269C190.82 9.55789 188.834 11.5441 188.834 13.9922V28.9686C188.834 31.4167 190.82 33.4029 193.269 33.4029H255.101C257.549 33.4029 259.535 31.4167 259.535 28.9686V13.9922C259.535 11.5441 257.549 9.55789 255.101 9.55789Z" fill="#D6D4D2"/>
<path d="M188.834 25.0104V28.9721C188.834 31.4202 190.82 33.4064 193.269 33.4064H255.101C257.549 33.4064 259.535 31.4202 259.535 28.9721V25.0104H188.834Z" fill="#CCCBCA"/>
<path d="M181.002 77.3443H154.691V101.598H181.002V77.3443ZM176.517 81.8283V97.1173H159.172V81.8283H176.517Z" fill="#D6D4D2"/>
<path d="M188.766 140.323H292.785V131.714H188.766V140.323Z" fill="#B4B3B4"/>
<path d="M188.766 155.968H292.785V147.362H188.766V155.968Z" fill="#D6D4D2"/>
<path d="M154.688 171.616H292.786V163.006H154.688V171.616Z" fill="#D6D4D2"/>
<path d="M154.688 239.541H216.114V230.935H154.688V239.541Z" fill="#D6D4D2"/>
<path d="M154.688 254.645H188.315V246.036H154.688V254.645Z" fill="#D6D4D2"/>
<path d="M231.615 239.541H293.042V230.931H231.615V239.541Z" fill="#D6D4D2"/>
<path d="M231.615 254.645H265.246V246.036H231.615V254.645Z" fill="#D6D4D2"/>
<path d="M181.002 131.714H154.691V155.968H181.002V131.714ZM176.517 136.198V151.487H159.172V136.198H176.517Z" fill="#D6D4D2"/>
<path d="M154.688 194.547H292.786V186.084H154.688V194.547Z" fill="#B4B3B4"/>
<path d="M216.303 200.559H154.691V224.813H216.303V200.559ZM211.818 205.043V220.329H159.172V205.043H211.818Z" fill="#D6D4D2"/>
<path d="M292.787 200.559H231.172V224.813H292.787V200.559ZM288.302 205.043V220.329H235.656V205.043H288.302Z" fill="#D6D4D2"/>
<path d="M181.468 76.3636L167.794 90.036L161.54 83.7825C160.527 82.7699 158.882 82.7699 157.869 83.7825C156.856 84.7951 156.856 86.4402 157.869 87.4529L165.957 95.5398C166.44 96.023 167.108 96.3001 167.794 96.3001C168.476 96.3001 169.148 96.023 169.631 95.5398L185.142 80.0304C186.155 79.0178 186.155 77.3727 185.142 76.36C184.13 75.3474 182.484 75.3474 181.472 76.36L181.468 76.3636Z" fill="#2FAA4D"/>
<path d="M181.468 129.881L167.794 143.553L161.543 137.3C160.531 136.287 158.885 136.287 157.869 137.3C156.856 138.312 156.856 139.957 157.869 140.973L165.957 149.06C166.44 149.544 167.108 149.821 167.794 149.821C168.476 149.821 169.148 149.544 169.631 149.06L185.142 133.551C186.155 132.538 186.155 130.893 185.142 129.881C184.13 128.868 182.484 128.868 181.472 129.881H181.468Z" fill="#2FAA4D"/>
<path d="M162.872 61.6928L160.939 58.9249C162.058 58.4452 162.712 57.4965 162.712 56.2067C162.712 54.2739 161.273 53.0836 158.97 53.0836H155.242V61.6963H157.236V59.298H158.97H159.069L160.729 61.6963H162.868L162.872 61.6928ZM160.693 56.2067C160.693 57.1412 160.079 57.7062 158.86 57.7062H157.236V54.7038H158.86C160.079 54.7038 160.693 55.2581 160.693 56.2032V56.2067ZM166.265 60.0939V58.1006H170.263V56.5514H166.265V54.6825H170.793V53.0836H164.282V61.6963H170.952V60.0974H166.265V60.0939ZM178.358 59.7741C177.853 60.0441 177.349 60.1436 176.809 60.1436C175.16 60.1436 174.016 58.9995 174.016 57.3864C174.016 55.7484 175.16 54.6292 176.834 54.6292C177.708 54.6292 178.433 54.9383 179.062 55.6027L180.341 54.4231C179.506 53.4495 178.248 52.9343 176.738 52.9343C173.994 52.9343 172.001 54.7926 172.001 57.3864C172.001 59.9837 173.994 61.8384 176.702 61.8384C177.932 61.8384 179.236 61.4583 180.185 60.7441V57.2514H178.365V59.7741H178.358ZM182.025 61.6928H184.019V53.08H182.025V61.6928ZM188.891 61.842C191.353 61.842 192.544 60.6126 192.544 59.1736C192.544 56.0113 187.537 57.1057 187.537 55.521C187.537 54.9809 187.992 54.5368 189.172 54.5368C189.936 54.5368 190.76 54.7571 191.559 55.2119L192.174 53.6982C191.375 53.1937 190.266 52.9343 189.186 52.9343C186.737 52.9343 185.558 54.153 185.558 55.6169C185.558 58.8147 190.565 57.7097 190.565 59.3193C190.565 59.8487 190.085 60.2431 188.905 60.2431C187.871 60.2431 186.787 59.8736 186.062 59.3442L185.387 60.8436C186.151 61.4334 187.526 61.8384 188.894 61.8384L188.891 61.842ZM195.571 61.6928H197.565V54.7038H200.323V53.08H192.817V54.7038H195.575V61.6928H195.571ZM209.018 61.6928L207.085 58.9249C208.204 58.4452 208.858 57.4965 208.858 56.2067C208.858 54.2739 207.419 53.0836 205.116 53.0836H201.389V61.6963H203.382V59.298H205.116H205.216L206.875 61.6963H209.015L209.018 61.6928ZM206.84 56.2067C206.84 57.1412 206.225 57.7062 205.006 57.7062H203.382V54.7038H205.006C206.225 54.7038 206.84 55.2581 206.84 56.2032V56.2067ZM216.868 61.6928H218.961L215.109 53.08H213.14L209.302 61.6928H211.346L212.11 59.8487H216.107L216.871 61.6928H216.868ZM212.746 58.3351L214.11 55.0378L215.475 58.3351H212.742H212.746ZM221.21 61.6928H223.204V54.7038H225.961V53.08H218.456V54.7038H221.214V61.6928H221.21ZM227.031 61.6928H229.025V53.08H227.031V61.6928ZM235.236 61.842C237.944 61.842 239.948 59.9588 239.948 57.3899C239.948 54.8175 237.944 52.9379 235.236 52.9379C232.518 52.9379 230.524 54.8317 230.524 57.3899C230.524 59.9482 232.518 61.842 235.236 61.842ZM235.236 60.1436C233.698 60.1436 232.543 59.0244 232.543 57.3864C232.543 55.7484 233.698 54.6292 235.236 54.6292C236.775 54.6292 237.93 55.7484 237.93 57.3864C237.93 59.0244 236.775 60.1436 235.236 60.1436ZM247.379 53.0836V58.3102L243.097 53.0836H241.448V61.6963H243.416V56.4697L247.709 61.6963H249.344V53.0836H247.375H247.379ZM261.38 54.6825V53.0836H254.87V61.6963H256.863V58.5589H260.85V56.96H256.863V54.6825H261.38ZM266.905 61.842C269.613 61.842 271.617 59.9588 271.617 57.3899C271.617 54.8175 269.613 52.9379 266.905 52.9379C264.187 52.9379 262.193 54.8317 262.193 57.3899C262.193 59.9482 264.187 61.842 266.905 61.842ZM266.905 60.1436C265.367 60.1436 264.212 59.0244 264.212 57.3864C264.212 55.7484 265.367 54.6292 266.905 54.6292C268.444 54.6292 269.599 55.7484 269.599 57.3864C269.599 59.0244 268.444 60.1436 266.905 60.1436ZM280.747 61.6928L278.813 58.9249C279.933 58.4452 280.587 57.4965 280.587 56.2067C280.587 54.2739 279.147 53.0836 276.845 53.0836H273.117V61.6963H275.111V59.298H276.845H276.944L278.604 61.6963H280.743L280.747 61.6928ZM278.568 56.2067C278.568 57.1412 277.953 57.7062 276.735 57.7062H275.111V54.7038H276.735C277.953 54.7038 278.568 55.2581 278.568 56.2032V56.2067ZM291.869 61.6928L291.844 53.08H290.206L287.033 58.431L283.81 53.08H282.161V61.6928H284.03V56.6367L286.553 60.7832H287.452L289.986 56.5265L289.996 61.6928H291.866H291.869Z" fill="#838283"/>
<path d="M127.34 228.874V217.259C131.231 214.033 135.115 210.412 138.53 206.518V219.796C136.167 221.981 133.704 224.042 131.259 225.946C129.941 226.973 128.633 227.943 127.343 228.874H127.34Z" fill="#EF7F1A"/>
<path d="M138.531 219.796V206.518C141.221 203.448 143.62 200.208 145.507 196.853C149.01 190.628 152.073 187.981 154.689 186.201V194.551H160.456C157.734 196.281 154.501 198.765 150.769 205.171C147.717 210.416 143.321 215.369 138.527 219.799L138.531 219.796ZM169.347 186.084H154.859C156.54 184.954 158.033 184.162 159.333 182.971C159.667 182.666 159.987 182.335 160.293 181.966C160.702 181.475 161.089 180.918 161.455 180.264L161.458 180.26C163.292 178.324 164.443 176.501 166.092 174.575C166.906 173.623 167.841 172.646 169.035 171.616H180.765C181.838 173.783 181.596 176.014 179.798 177.045C173.647 180.566 171.529 183.334 169.347 186.084Z" fill="#E3E1E0"/>
<path d="M180.767 171.616H169.037C170.341 170.493 171.962 169.306 174.076 168.027C174.225 167.935 174.382 167.842 174.538 167.75C174.872 167.551 175.153 167.309 175.38 167.036C178.013 167.998 179.861 169.782 180.767 171.616Z" fill="#C1C0BF"/>
<path d="M160.459 194.547H154.691V186.198C154.748 186.158 154.805 186.119 154.862 186.08H169.35C168.55 187.089 167.744 188.091 166.724 189.132L166.72 189.136C165.078 191.982 162.985 192.938 160.459 194.547Z" fill="#A2A4A5"/>
<path d="M365.015 383.992H358.366C351.49 364.916 340.794 336.953 333.747 326.791C322.646 310.781 315.166 311.004 305.877 308.073C305.607 307.988 305.322 307.895 305.031 307.803C304.942 307.775 304.85 307.743 304.761 307.714C304.555 307.647 304.349 307.579 304.132 307.508C304.015 307.469 303.89 307.426 303.769 307.384C303.567 307.316 303.364 307.245 303.155 307.174C303.027 307.131 302.895 307.085 302.764 307.039C302.547 306.964 302.33 306.886 302.106 306.808C301.975 306.762 301.847 306.716 301.712 306.67C301.435 306.57 301.154 306.471 300.866 306.364C300.784 306.336 300.706 306.307 300.625 306.279C300.251 306.144 299.871 306.002 299.484 305.856C299.381 305.817 299.274 305.778 299.175 305.739C298.887 305.628 298.599 305.518 298.304 305.405C298.155 305.348 298.002 305.287 297.853 305.231C297.593 305.131 297.334 305.028 297.067 304.921C296.907 304.857 296.744 304.794 296.581 304.726C296.314 304.619 296.048 304.513 295.777 304.403C295.614 304.339 295.454 304.271 295.291 304.204C294.999 304.083 294.701 303.959 294.402 303.834C294.26 303.774 294.118 303.713 293.972 303.653C293.535 303.468 293.091 303.28 292.647 303.084L292.434 302.989C292.053 302.825 291.673 302.655 291.289 302.484C291.126 302.413 290.962 302.335 290.795 302.26C290.561 302.154 290.33 302.05 290.092 301.94H308.911C314.224 301.94 318.741 298.533 320.393 293.782C324.44 296.188 328.722 300.125 333.751 307.409C344.856 323.494 365.022 383.989 365.022 383.989L365.015 383.992Z" fill="#E3E1E0"/>
<path d="M308.905 301.944H290.085C290.021 301.915 289.961 301.887 289.897 301.859C289.712 301.773 289.527 301.688 289.342 301.603C289.054 301.468 288.767 301.333 288.475 301.198C288.287 301.109 288.099 301.02 287.91 300.928C287.608 300.782 287.31 300.636 287.004 300.491C286.83 300.405 286.656 300.32 286.482 300.235C286.101 300.05 285.721 299.858 285.341 299.666C285.241 299.617 285.142 299.567 285.042 299.517C284.57 299.275 284.097 299.03 283.625 298.782C283.468 298.7 283.312 298.615 283.156 298.533C282.832 298.362 282.509 298.188 282.182 298.011C281.994 297.908 281.805 297.805 281.617 297.698C281.322 297.534 281.023 297.371 280.728 297.204C280.533 297.094 280.338 296.984 280.142 296.874C280.011 296.799 279.876 296.721 279.744 296.646H308.901C312.529 296.646 315.788 295.054 318.012 292.535C318.794 292.901 319.583 293.317 320.379 293.789C318.727 298.536 314.21 301.947 308.897 301.947L308.905 301.944Z" fill="#CDCBCC"/>
<path d="M308.904 296.643H279.747C279.584 296.55 279.42 296.454 279.261 296.358C279.072 296.252 278.887 296.142 278.699 296.032C278.369 295.836 278.042 295.637 277.715 295.438C277.566 295.349 277.416 295.26 277.267 295.168C276.801 294.88 276.332 294.589 275.87 294.294C275.753 294.219 275.639 294.145 275.522 294.067C275.17 293.839 274.819 293.612 274.47 293.381C274.3 293.267 274.129 293.15 273.959 293.036C273.667 292.837 273.372 292.638 273.084 292.439C272.903 292.315 272.722 292.187 272.541 292.059C272.26 291.864 271.983 291.665 271.706 291.462C271.528 291.334 271.35 291.206 271.173 291.075C270.885 290.858 270.597 290.645 270.309 290.425C270.156 290.307 270 290.19 269.847 290.073C269.453 289.767 269.062 289.458 268.675 289.146L268.554 289.05C267.616 288.286 266.706 287.504 265.828 286.701H300.347C302.469 287.486 304.345 288.122 305.866 288.606C310.12 289.956 313.993 290.638 318.012 292.528C315.784 295.047 312.529 296.639 308.901 296.639L308.904 296.643Z" fill="#EF7F1A"/>
<path d="M300.356 286.705H265.836C264.582 285.553 263.399 284.367 262.301 283.134C250.361 269.735 245.951 277.85 240.031 265.226C237.859 260.596 241.718 258.774 242.952 254.641H249.931C253.079 255.814 256.928 257.494 262.301 263.552C262.326 263.577 262.347 263.606 262.372 263.631C262.379 263.638 262.382 263.641 262.39 263.648C267.837 269.753 275.417 274.866 282.94 278.898C282.943 278.898 282.947 278.902 282.947 278.902C282.957 278.906 282.965 278.913 282.972 278.916C282.979 278.92 282.986 278.923 282.993 278.927C283 278.93 283.007 278.934 283.014 278.937C283.021 278.941 283.029 278.945 283.039 278.952C283.046 278.955 283.053 278.959 283.057 278.962C283.071 278.969 283.078 278.973 283.093 278.98C283.096 278.984 283.1 278.984 283.103 278.987C289.325 282.313 295.491 284.9 300.359 286.701L300.356 286.705ZM239.412 242.387C239.391 242.22 239.402 242.045 239.448 241.868L239.714 240.873L236.672 239.544H240.51C239.967 240.454 239.526 241.36 239.409 242.39L239.412 242.387ZM283.899 242.028C283.839 241.999 283.778 241.974 283.718 241.95L283.928 242.003C283.906 242.021 283.896 242.031 283.896 242.031L283.899 242.028ZM275.271 241.033C274.713 240.443 274.049 239.949 273.324 239.544H273.995L274.063 239.562C274.052 239.555 274.045 239.551 274.035 239.544H283.558C282.009 240.137 280.15 240.599 278.324 240.617L279.855 240.997C279.091 240.912 278.366 240.884 277.727 240.884C276.27 240.884 275.268 241.036 275.268 241.036L275.271 241.033ZM231.619 237.384C230.408 236.968 229.494 236.307 229.341 235.16L227.142 234.2C226.545 234.03 226.118 233.713 226.307 233.01C226.445 232.502 226.758 232.328 227.149 232.328C227.298 232.328 227.462 232.353 227.629 232.395L230.013 232.662L230.07 232.576C230.201 232.42 230.347 232.289 230.503 232.178C230.816 231.962 231.175 231.837 231.566 231.788C231.584 231.784 231.602 231.784 231.616 231.781V237.38L231.619 237.384ZM292.875 230.935H264.088C263.683 227.94 262.276 226.149 261.011 224.813H289.02C290.089 225.655 291.362 225.982 292.652 225.982C293.384 225.982 294.123 225.879 294.841 225.705C294.432 227.527 293.732 229.286 292.875 230.935ZM243.204 230.935H242.966C243.033 230.874 243.104 230.81 243.175 230.747C243.186 230.81 243.197 230.871 243.204 230.935ZM292.79 214.544V211.322C293.181 211.983 293.515 212.661 293.796 213.365C293.465 213.759 293.128 214.153 292.79 214.548V214.544Z" fill="#E3E1E0"/>
<path d="M283.558 239.541H274.034C272.958 238.876 272.037 237.86 271.394 236.382C270.307 236.922 268.914 237.448 267.425 237.771C266.05 237.593 264.866 237.561 264.177 237.561C263.768 237.561 263.534 237.572 263.534 237.572C263.999 235.696 264.195 234.086 264.195 232.697C264.195 232.065 264.152 231.478 264.077 230.931H292.865C292.282 232.051 291.632 233.116 290.949 234.115C289.315 235.714 287.566 237.313 286.323 238.151C285.658 238.599 284.688 239.103 283.554 239.537L283.558 239.541ZM273.995 239.541H273.324C273.125 239.427 272.922 239.324 272.716 239.224L273.999 239.541H273.995ZM240.51 239.541H236.672L232.014 237.505C231.879 237.465 231.747 237.426 231.619 237.38V231.781C231.754 231.763 231.893 231.756 232.038 231.756C232.5 231.756 232.998 231.834 233.513 231.962L240.858 232.782C241.196 232.491 241.708 232.047 242.33 231.496C242.436 231.34 242.575 231.23 242.728 231.144C242.806 231.073 242.884 231.002 242.966 230.931H243.204C243.278 231.461 243.314 231.958 243.314 232.427C243.31 235.646 241.676 237.6 240.514 239.541H240.51Z" fill="#C1C0BF"/>
<path d="M249.93 254.645H242.951C243.282 253.536 243.424 252.261 243.207 250.722C245.279 253.074 247.372 253.693 249.93 254.645Z" fill="#C1C0BF"/>
<path d="M287.506 220.329H253.35C253.506 220.098 253.645 219.881 253.758 219.675C254.195 218.89 254.966 217.383 255.961 215.457C256.498 215.06 257.102 214.555 257.738 213.99C259.117 217.245 261.807 218.304 264.593 218.304C267.791 218.304 271.11 216.907 272.699 215.831C275.744 213.766 281.81 207.133 281.81 207.133C281.899 207.122 283.246 206.23 284.969 205.043H286.65C287.236 205.463 287.784 205.882 288.295 206.298V219.49C287.993 219.81 287.723 220.091 287.499 220.329H287.506Z" fill="#E3E1E0"/>
<path d="M289.015 224.813H261.006C260.747 224.539 260.491 224.283 260.253 224.038C260.246 224.031 260.239 224.024 260.232 224.017C260.221 224.006 260.21 223.996 260.2 223.985C258.618 222.418 255.704 221.444 252.688 221.224C252.933 220.908 253.157 220.609 253.348 220.325H287.505C287.018 220.833 286.731 221.128 286.731 221.128C287.246 222.869 288.049 224.049 289.015 224.809V224.813ZM288.301 219.494V206.301C290.305 207.939 291.752 209.574 292.786 211.322V214.544C291.144 216.445 289.474 218.254 288.301 219.494ZM286.656 205.043H284.975C285.249 204.855 285.529 204.66 285.817 204.457C286.105 204.652 286.386 204.848 286.656 205.043Z" fill="#C1C0BF"/>
<path d="M292.367 199.184V193.378H274.596C272.606 196.612 271.476 198.857 270.904 199.884C268.636 203.963 257.535 213.457 257.535 213.457C260.254 221.139 269.66 217.895 272.705 215.834C275.751 213.77 281.817 207.136 281.817 207.136C282.108 207.108 295.729 197.703 292.367 199.188V199.184Z" fill="#D28C6F"/>
<path d="M305.99 201.718V193.378H289.825C286.808 197.98 285.234 201.138 284.527 202.414C282.259 206.493 271.158 215.987 271.158 215.987C273.877 223.669 283.279 220.425 286.325 218.36C289.37 216.296 295.436 209.662 295.436 209.662C295.727 209.634 309.348 200.229 305.99 201.714V201.718Z" fill="#D28C6F"/>
<path d="M315.909 206.862V193.378H305.369C300.824 200.769 298.724 205.853 297.932 207.559C296.034 211.638 286.734 221.132 286.734 221.132C289.012 228.814 296.89 225.57 299.442 223.505C301.993 221.444 307.071 214.807 307.071 214.807C307.313 214.779 318.727 205.374 315.909 206.859V206.862Z" fill="#D28C6F"/>
<path d="M240.39 213.368C240.39 213.368 251.494 203.874 253.758 199.795C256.025 195.716 267.126 172.379 272.34 171.246C277.553 170.113 293.867 183.028 300.661 186.88C307.459 190.731 326.72 186.222 331.705 192.33C336.691 198.434 345.525 213.841 353.684 230.608C361.843 247.375 366.825 265.5 371.583 273.881C376.341 282.263 382.461 291.555 396.508 311.491C410.555 331.428 444.999 383.992 444.999 383.992H365.013C365.013 383.992 344.846 323.501 333.741 307.412C322.64 291.327 315.16 291.555 305.871 288.609C296.582 285.664 274.234 277.015 262.297 263.552C250.357 250.093 245.947 258.244 240.027 245.559C237.039 239.157 245.478 238.098 242.76 228.977C240.041 219.853 255.769 219.472 260.25 224.038C262.322 226.149 265.609 229.226 263.534 237.576C263.534 237.576 271.622 237.178 275.264 241.033C275.264 241.033 280.04 240.304 283.892 242.028C283.892 242.028 295.448 232.424 295.221 222.002C294.993 211.581 292.04 206.621 275.264 198.665C275.264 198.665 269.23 206.596 264.664 207.047C264.664 207.047 258.598 213.681 255.553 215.745C252.507 217.81 243.104 221.05 240.382 213.372L240.39 213.368Z" fill="#E6AA8D"/>
<path d="M353.992 263.375C353.547 263.375 353.1 263.3 352.663 263.144L347.702 261.357L345.708 260.639C344.429 261.598 342.944 262.138 341.448 262.138C340.758 262.138 340.069 262.025 339.394 261.783L289.37 243.779C289.107 244.174 288.699 244.412 288.283 244.412C288.169 244.412 288.059 244.394 287.949 244.359L284.825 243.3C284.285 243.115 283.979 242.525 284.054 241.886C284.498 241.502 285.813 240.329 287.394 238.592L287.419 238.567L287.579 238.389L287.757 238.19C288.233 237.657 288.727 237.075 289.221 236.453L289.253 236.414L289.427 236.197L289.615 235.955L289.793 235.724L289.807 235.707L289.981 235.476L290.024 235.419C290.12 235.287 290.22 235.156 290.315 235.021L290.376 234.939L290.518 234.737L290.596 234.627L290.735 234.431L290.92 234.165L291.055 233.966L291.147 233.827L291.275 233.632L291.282 233.621L291.463 233.344L291.577 233.163L291.666 233.024L291.801 232.807L291.865 232.704C291.943 232.576 292.021 232.445 292.099 232.313L292.174 232.186L292.291 231.983L292.384 231.82L292.497 231.621L292.661 231.326L292.767 231.127L292.863 230.942L292.956 230.764L293.059 230.558C293.112 230.455 293.162 230.349 293.212 230.246L293.3 230.057L293.393 229.862L293.475 229.684C293.521 229.581 293.567 229.478 293.613 229.375L293.709 229.155L293.794 228.952L293.83 228.863C294.025 229.116 294.125 229.46 294.104 229.819L344.767 245.922C344.987 245.993 345.2 246.075 345.41 246.171L345.609 246.27C345.747 246.338 345.879 246.405 346.01 246.483L346.234 246.625C346.348 246.7 346.458 246.775 346.568 246.856L346.789 247.03C346.888 247.112 346.988 247.201 347.08 247.29L347.29 247.492C347.378 247.585 347.464 247.681 347.549 247.777L347.741 248C347.823 248.104 347.901 248.214 347.975 248.324L348.139 248.555C348.256 248.736 348.363 248.921 348.466 249.109C348.523 249.219 348.576 249.336 348.626 249.45C348.668 249.543 348.715 249.635 348.757 249.731C348.807 249.855 348.853 249.983 348.899 250.111C348.931 250.2 348.963 250.289 348.995 250.381C349.027 250.477 349.056 250.569 349.081 250.665L356.127 252.904C358.558 253.678 359.755 256.652 358.789 259.509C357.996 261.851 356.003 263.368 353.988 263.368L353.992 263.375Z" fill="#CF9A7F"/>
<path d="M253.611 221.317L253.661 221.324H253.665L253.718 221.331L253.611 221.317ZM254.791 221.505L254.844 221.516L254.869 221.519L254.908 221.526L254.791 221.501V221.505ZM255.978 221.782L255.999 221.789L256.024 221.796L256.063 221.807L255.978 221.782ZM256.33 221.885L256.358 221.892L256.38 221.899L256.408 221.91L256.419 221.913L256.326 221.885H256.33ZM256.71 222.006L256.731 222.013L256.763 222.024L256.788 222.031L256.71 222.006ZM257.399 222.258L257.428 222.269L257.467 222.283L257.492 222.294L257.396 222.255L257.399 222.258ZM257.741 222.4L257.769 222.411L257.787 222.418L257.801 222.425L257.826 222.436L257.748 222.4H257.741ZM258.071 222.549L258.089 222.557L258.131 222.578L258.149 222.589L258.071 222.549ZM258.394 222.709L258.423 222.724H258.426L258.434 222.727L258.451 222.738L258.398 222.709H258.394ZM258.7 222.876L258.707 222.88L258.743 222.898L258.757 222.905L258.704 222.873L258.7 222.876ZM259.269 223.228L259.272 223.232L259.311 223.257L259.322 223.264L259.269 223.228ZM260.018 223.811L260.029 223.818L260.065 223.85L260.068 223.853L260.022 223.811H260.018Z" fill="#CF9A7F"/>
<path d="M318.02 292.532C314.005 290.641 310.131 289.959 305.874 288.609C304.35 288.126 302.477 287.49 300.355 286.705C302.477 287.49 304.353 288.126 305.874 288.609C310.128 289.959 314.001 290.641 318.02 292.532Z" fill="#148583"/>
<path d="M283.035 278.955C283.024 278.952 283.017 278.948 283.01 278.941C283.017 278.945 283.028 278.952 283.035 278.955ZM282.943 278.906C282.939 278.902 282.936 278.902 282.936 278.902C282.939 278.902 282.943 278.906 282.943 278.906Z" fill="#CDCBCC"/>
<path d="M370.879 383.992H365.012C365.012 383.992 344.846 323.501 333.741 307.412C327.721 298.693 322.768 294.767 318.017 292.532C314.001 290.641 310.128 289.959 305.871 288.609C304.346 288.126 302.473 287.49 300.352 286.705C295.487 284.903 289.318 282.316 283.096 278.991C283.092 278.987 283.089 278.987 283.085 278.984C283.071 278.977 283.064 278.973 283.05 278.966C283.043 278.962 283.035 278.959 283.032 278.955C283.025 278.952 283.014 278.948 283.007 278.941C283 278.937 282.993 278.934 282.986 278.93C282.979 278.927 282.971 278.923 282.964 278.92C282.954 278.916 282.947 278.909 282.939 278.906C282.936 278.906 282.932 278.902 282.932 278.902C277.954 276.23 272.95 273.089 268.555 269.5C286.067 275.367 304.083 281.695 309.513 283.549C318.805 286.726 326.279 286.481 337.383 303.82C348.485 321.159 370.876 383.992 370.876 383.992H370.879Z" fill="#CF9A7F"/>
<path d="M353.354 252.733L364.064 255.832C366.516 256.539 369.167 254.734 369.949 251.82C370.734 248.907 369.345 246.014 366.871 245.396L356.054 242.703L353.357 252.73L353.354 252.733Z" fill="#818282"/>
<path d="M353.354 252.733L364.064 255.832C366.516 256.539 369.167 254.734 369.949 251.82C370.734 248.907 369.345 246.014 366.871 245.396L356.054 242.703L353.357 252.73L353.354 252.733Z" fill="#818282"/>
<path d="M353.354 252.733L364.064 255.832C366.516 256.539 369.167 254.734 369.949 251.82C370.734 248.907 369.345 246.014 366.871 245.396L356.054 242.703L353.357 252.73L353.354 252.733Z" fill="#818282"/>
<path d="M361.925 249.66C362.447 247.713 362.344 245.776 361.751 244.124L356.051 242.706L353.354 252.733L358.997 254.364C360.34 253.231 361.402 251.607 361.925 249.66Z" fill="#696668"/>
<path d="M219.347 212.405L222.482 213.78L223.292 210.764L219.891 210.38C219.22 210.213 218.63 210.277 218.416 211.069C218.203 211.858 218.683 212.213 219.347 212.402V212.405Z" fill="#818282"/>
<path d="M224.785 216.115L234.418 220.343L236.909 211.076L226.455 209.9C224.394 209.385 222.574 209.588 221.921 212.015C221.267 214.441 222.741 215.525 224.781 216.115H224.785Z" fill="#818282"/>
<path d="M235.51 216.289L236.91 211.073L226.456 209.897C224.395 209.382 222.575 209.584 221.925 212.011C221.868 212.224 221.847 212.412 221.818 212.604L235.507 216.285L235.51 216.289Z" fill="#696668"/>
<path d="M236.146 222.176L350.734 255.323C354.53 256.421 358.637 253.622 359.853 249.106C361.068 244.59 358.922 240.109 355.084 239.157L239.327 210.359L236.146 222.18V222.176Z" fill="#818282"/>
<path d="M360.158 247.301C360.457 243.452 358.406 239.978 355.084 239.153L239.327 210.355L238.211 214.509L360.162 247.304L360.158 247.301Z" fill="#696668"/>
<path d="M312.775 236.442C312.473 237.569 313.127 238.73 314.25 239.054L351.572 249.852C352.877 250.228 354.287 249.269 354.703 247.716C355.119 246.167 354.383 244.629 353.065 244.302L315.362 234.921C314.228 234.637 313.08 235.316 312.775 236.442Z" fill="#F1A53F"/>
<path d="M299.45 224.191L302.634 225.047C303.288 225.225 303.65 225.992 303.44 226.767L299.844 240.134C299.634 240.908 298.938 241.392 298.284 241.218L295.097 240.361C294.443 240.187 294.08 239.416 294.29 238.645L297.886 225.275C298.096 224.5 298.792 224.017 299.446 224.195L299.45 224.191Z" fill="#F1A53F"/>
<path d="M237.49 208.859L240.066 209.552C240.652 209.709 240.976 210.398 240.791 211.094L237.785 222.265C237.596 222.958 236.971 223.392 236.384 223.235L233.808 222.542C233.222 222.386 232.898 221.697 233.083 221L236.09 209.826C236.274 209.133 236.903 208.699 237.49 208.856V208.859Z" fill="#F1A53F"/>
<path d="M265.56 237.608C264.348 237.54 263.538 237.576 263.538 237.576C265.609 229.226 262.326 226.152 260.254 224.038C255.773 219.472 240.045 219.853 242.764 228.977C245.482 238.101 237.042 239.157 240.031 245.559C245.951 258.241 250.361 250.09 262.301 263.552C263.314 264.697 264.412 265.798 265.56 266.868V237.608Z" fill="#E6AA8D"/>
<path d="M265.558 178.48C260.598 186.027 255.253 197.106 253.757 199.795C251.49 203.874 240.389 213.368 240.389 213.368C243.107 221.05 252.513 217.806 255.559 215.742C258.604 213.677 264.67 207.044 264.67 207.044C264.961 207.015 265.26 206.944 265.558 206.859V178.477V178.48Z" fill="#E6AA8D"/>
<path d="M316.841 188.763C314.481 188.72 312.09 188.713 309.844 188.624C312.09 188.717 314.481 188.72 316.841 188.763Z" fill="#0D9290"/>
<path d="M305.799 188.312C305.788 188.312 305.781 188.308 305.774 188.308C305.781 188.308 305.792 188.312 305.799 188.312ZM305.76 188.308C305.753 188.308 305.749 188.305 305.742 188.305C305.749 188.305 305.753 188.305 305.76 188.308ZM297.452 184.886C296.453 184.236 295.373 183.508 294.239 182.744C294.236 182.74 294.232 182.737 294.229 182.737C295.366 183.508 296.453 184.236 297.452 184.89V184.886Z" fill="#E3E1E0"/>
<path d="M324.264 197.852C323.272 197.852 321.346 197.305 318.088 195.944C301.745 189.118 294.606 183.028 294.236 182.747C295.37 183.515 296.454 184.24 297.449 184.89C298.657 185.682 299.744 186.365 300.661 186.88C301.955 187.612 303.703 188.045 305.714 188.301C305.718 188.301 305.718 188.301 305.721 188.301C305.729 188.301 305.736 188.305 305.746 188.305C305.753 188.305 305.757 188.305 305.764 188.308C305.768 188.308 305.771 188.308 305.775 188.312C305.782 188.312 305.792 188.315 305.8 188.315H305.803C307.061 188.472 308.422 188.564 309.844 188.621C312.089 188.713 314.481 188.717 316.84 188.759C316.84 188.759 328.318 197.852 324.264 197.852Z" fill="#CF9A7F"/>
<path d="M273.494 200.783C271.912 198.9 272.431 193.904 272.431 193.904C273.188 196.85 275.267 198.662 275.267 198.662L273.49 200.783H273.494Z" fill="#CF9A7F"/>
<path d="M240.64 246.807L240.029 245.563C240.029 245.563 242.474 239.157 248.234 239.157C248.295 239.157 248.352 239.157 248.412 239.16C248.412 239.16 241.248 242.841 240.64 246.81V246.807Z" fill="#CF9A7F"/>
<path d="M162.428 157.012C149.671 159.88 142.493 167.146 139.913 170.262C139.721 170.486 139.536 170.72 139.355 170.962C138.985 171.441 138.804 171.719 138.804 171.719C138.804 171.719 130.812 173.04 128.069 177.578C128.069 177.578 123.25 177.876 119.849 180.374C119.849 180.374 115.134 177.915 110.895 173.769C98.9475 190.461 96.229 213.748 104.345 232.633C105.614 231.972 106.9 231.304 108.215 230.551C116.673 225.708 136.686 212.533 145.51 196.853C152.709 184.059 158.05 186.382 161.458 180.264L161.462 180.26C165.26 176.249 166.134 172.724 174.539 167.746C179.069 165.064 173.707 154.479 162.432 157.012H162.428Z" fill="#E6AA8D"/>
<path d="M165.744 174.618C163.637 174.618 159.188 170.479 158.125 169.292C156.906 167.931 162.947 163.202 168.686 161.521C168.917 161.454 169.145 161.418 169.372 161.418C170.769 161.418 172.115 162.743 173.91 165.877C174.333 166.613 174.34 167.331 174.077 168.023L173.782 168.205L173.771 168.212L173.764 168.215L173.402 168.439L173.398 168.443L173.046 168.666L173.029 168.677C172.815 168.812 172.609 168.951 172.407 169.082L172.364 169.111L172.318 169.143L172.037 169.334L171.98 169.374L171.732 169.544L171.717 169.555L171.65 169.601L171.426 169.757L171.408 169.768L171.39 169.779L171.106 169.981L171.096 169.988L170.815 170.194L170.79 170.212C170.417 170.489 170.065 170.759 169.735 171.029L169.731 171.033L169.482 171.235L169.479 171.239L169.472 171.242L169.233 171.441L169.219 171.456L169.034 171.616C168.867 171.761 168.704 171.903 168.544 172.045L168.338 172.234L168.327 172.244C168.111 172.443 167.904 172.639 167.709 172.834L167.698 172.845L167.514 173.03C167.386 173.158 167.261 173.286 167.137 173.413L167.108 173.442C167.005 173.548 166.906 173.655 166.81 173.762L166.778 173.797L166.767 173.808L166.604 173.985L166.6 173.989L166.44 174.17L166.433 174.177L166.28 174.351L166.266 174.366L166.241 174.394L166.124 174.529L166.103 174.554L166.085 174.575C165.978 174.607 165.861 174.621 165.737 174.621L165.744 174.618Z" fill="#E9B39B"/>
<path d="M159.332 182.971C159.325 182.968 159.318 182.961 159.307 182.957C158.465 182.453 157.651 181.93 156.848 181.39C156.045 180.85 155.252 180.292 154.467 179.706C153.685 179.109 152.9 178.505 152.146 177.759C153.205 177.826 154.193 178.111 155.149 178.48C156.098 178.857 157.001 179.336 157.846 179.901C158.692 180.466 159.481 181.12 160.188 181.856L160.291 181.966L160.277 181.984L160.263 181.998V182.001L160.249 182.019C160.199 182.076 160.153 182.133 160.103 182.186L160.089 182.204L160.085 182.211L160.074 182.222C160.021 182.282 159.968 182.342 159.911 182.399L159.9 182.41L159.897 182.413L159.883 182.431C159.833 182.485 159.783 182.534 159.733 182.588L159.719 182.602L159.716 182.605L159.701 182.62C159.648 182.673 159.591 182.73 159.538 182.783L159.534 182.787L159.527 182.794L159.52 182.801L159.506 182.815C159.456 182.865 159.403 182.911 159.35 182.961L159.335 182.975L159.332 182.971Z" fill="#CF9A7F"/>
<path d="M64.2747 383.992C67.8922 354.775 78.7945 269.738 84.9457 254.822C91.2391 239.565 97.4613 236.222 104.337 232.633C105.606 231.972 106.892 231.304 108.207 230.551C106.892 231.304 105.603 231.972 104.337 232.633C97.4613 236.222 91.2355 239.562 84.9457 254.822C78.7945 269.742 67.8922 354.775 64.2747 383.992Z" fill="#CDCBCC"/>
<path d="M64.2747 383.992H53.5039C56.4391 366.788 63.6991 324.815 67.5547 296.643C72.3377 261.673 80.1698 243.236 84.2919 239.157C88.2186 235.273 94.3413 231.667 102.554 227.886C103.076 229.492 103.669 231.077 104.337 232.633C97.4613 236.222 91.2355 239.562 84.9457 254.822C78.7945 269.742 67.8922 354.775 64.2747 383.992Z" fill="#CF9A7F"/>
<path d="M108.271 230.519C108.275 230.516 108.282 230.512 108.289 230.508C108.282 230.512 108.279 230.516 108.271 230.519ZM108.3 230.505C108.303 230.501 108.311 230.498 108.314 230.498C108.311 230.501 108.307 230.501 108.3 230.505Z" fill="#CDCBCC"/>
<path d="M104.341 232.633C103.672 231.081 103.079 229.496 102.557 227.886C109.074 224.891 116.902 221.786 125.992 218.353C119.134 223.882 112.404 228.142 108.31 230.494C108.306 230.498 108.303 230.498 108.296 230.501C108.292 230.505 108.289 230.505 108.285 230.508C108.278 230.512 108.274 230.516 108.267 230.519C108.264 230.523 108.26 230.523 108.26 230.523C108.242 230.533 108.228 230.54 108.21 230.551C106.896 231.304 105.606 231.972 104.341 232.633Z" fill="#CF9A7F"/>
</svg>
