<svg width="65" height="65" viewBox="0 0 65 65" fill="none" xmlns="http://www.w3.org/2000/svg">
<path d="M32.376 64.7519C14.4955 64.7519 0 50.2564 0 32.376C0 14.4955 14.4955 0 32.376 0C50.2564 0 64.7519 14.4955 64.7519 32.376C64.7519 50.2564 50.2564 64.7519 32.376 64.7519Z" fill="#3260A0"/>
<path d="M27.4421 51.9467H35.3225V32.2123H40.8225L41.411 25.6061H35.327C35.327 25.6061 35.327 23.1371 35.327 21.8406C35.327 20.2831 35.6411 19.6681 37.1455 19.6681C38.3579 19.6681 41.411 19.6681 41.411 19.6681V12.8097C41.411 12.8097 36.9155 12.8097 35.9553 12.8097C30.0925 12.8097 27.4465 15.3938 27.4465 20.3362C27.4465 24.6415 27.4465 25.6061 27.4465 25.6061H23.3447V32.2963H27.4465V51.9511L27.4421 51.9467Z" fill="#FEFEFE"/>
</svg>
