<svg width="65" height="65" viewBox="0 0 65 65" fill="none" xmlns="http://www.w3.org/2000/svg">
<path fill-rule="evenodd" clip-rule="evenodd" d="M32.376 64.7519C14.4955 64.7519 0 50.2564 0 32.376C0 14.4955 14.4955 0 32.376 0C50.2564 0 64.7519 14.4955 64.7519 32.376C64.7519 50.2564 50.2564 64.7519 32.376 64.7519Z" fill="url(#paint0_radial_16_6701)"/>
<path d="M32.3752 14.6238C27.5566 14.6238 26.9504 14.6459 25.0566 14.73C23.1672 14.814 21.8752 15.1149 20.7469 15.553C19.5788 16.0043 18.5876 16.6149 17.6009 17.6016C16.6142 18.5884 16.008 19.5795 15.5522 20.7476C15.1142 21.876 14.8133 23.168 14.7292 25.0574C14.6407 26.9512 14.623 27.5573 14.623 32.3759C14.623 37.1989 14.6452 37.8007 14.7292 39.6945C14.8133 41.5838 15.1142 42.8759 15.5522 44.0042C16.0036 45.1723 16.6142 46.1635 17.6009 47.1502C18.5876 48.1369 19.5788 48.7431 20.7469 49.1988C21.8752 49.6369 23.1672 49.9378 25.0566 50.0218C26.9504 50.1103 27.5566 50.128 32.3752 50.128C37.1982 50.128 37.7999 50.1103 39.6937 50.0218C41.5831 49.9333 42.8751 49.6369 44.0034 49.1988C45.1716 48.7475 46.1583 48.1369 47.1494 47.1502C48.1361 46.1635 48.7423 45.1723 49.1981 44.0042C49.6361 42.8759 49.937 41.5838 50.0211 39.6945C50.1052 37.8007 50.1273 37.1945 50.1273 32.3759C50.1273 27.5573 50.1052 26.9512 50.0211 25.0574C49.9326 23.168 49.6361 21.876 49.1981 20.7476C48.7423 19.5795 48.1361 18.5884 47.1494 17.6016C46.1627 16.6149 45.1716 16.0087 44.0034 15.553C42.8751 15.1149 41.5831 14.814 39.6937 14.73C37.7999 14.6415 37.1937 14.6238 32.3752 14.6238ZM32.3752 17.8229C37.1141 17.8229 37.676 17.8406 39.5477 17.9246C41.2778 18.0043 42.2202 18.2919 42.8441 18.5353C43.6716 18.8583 44.2645 19.2432 44.8839 19.8627C45.5078 20.4822 45.8884 21.0751 46.2114 21.9025C46.4547 22.5264 46.7423 23.4689 46.822 25.199C46.9061 27.0706 46.9238 27.6326 46.9238 32.3715C46.9238 37.1104 46.9061 37.6723 46.822 39.544C46.7423 41.2741 46.4547 42.2166 46.2114 42.8405C45.8884 43.6679 45.5034 44.2608 44.8839 44.8847C44.2645 45.5042 43.6716 45.8891 42.8441 46.2121C42.2158 46.4555 41.2778 46.7431 39.5477 46.8227C37.676 46.9068 37.1141 46.9245 32.3752 46.9245C27.6363 46.9245 27.0743 46.9068 25.2026 46.8227C23.4726 46.7431 22.5301 46.4555 21.9062 46.2121C21.0788 45.8891 20.4858 45.5042 19.8664 44.8847C19.2469 44.2608 18.862 43.6723 18.5389 42.8405C18.2956 42.2166 18.008 41.2741 17.9283 39.544C17.8443 37.6723 17.8266 37.1104 17.8266 32.3715C17.8266 27.6326 17.8443 27.0706 17.9283 25.199C18.008 23.4689 18.2956 22.5264 18.5389 21.9025C18.862 21.0751 19.2469 20.4822 19.8664 19.8627C20.4858 19.2432 21.0788 18.8583 21.9062 18.5353C22.5301 18.2919 23.4726 18.0043 25.2026 17.9246C27.0743 17.8406 27.6363 17.8229 32.3752 17.8229Z" fill="#FEFEFE"/>
<path d="M32.3758 38.2919C29.1059 38.2919 26.4599 35.6415 26.4599 32.376C26.4599 29.1061 29.1103 26.4601 32.3758 26.4601C35.6457 26.4601 38.2917 29.1105 38.2917 32.376C38.2917 35.6459 35.6412 38.2919 32.3758 38.2919ZM32.3758 23.261C27.3404 23.261 23.2607 27.3406 23.2607 32.376C23.2607 37.4114 27.3448 41.491 32.3758 41.491C37.4111 41.491 41.4908 37.4114 41.4908 32.376C41.4908 27.3406 37.4111 23.261 32.3758 23.261Z" fill="#FEFEFE"/>
<path d="M43.9817 22.8981C43.9817 24.0751 43.026 25.0308 41.849 25.0308C40.672 25.0308 39.7207 24.0795 39.7207 22.8981C39.7207 21.7211 40.672 20.7698 41.849 20.7698C43.026 20.7698 43.9817 21.7211 43.9817 22.8981Z" fill="#FEFEFE"/>
<defs>
<radialGradient id="paint0_radial_16_6701" cx="0" cy="0" r="1" gradientUnits="userSpaceOnUse" gradientTransform="translate(-1.76683 64.7761) rotate(-43.8768) scale(119.721 119.721)">
<stop stop-color="#F7E94B"/>
<stop offset="0.239216" stop-color="#F08449"/>
<stop offset="0.490196" stop-color="#E7457D"/>
<stop offset="1" stop-color="#34529E"/>
</radialGradient>
</defs>
</svg>
