<svg width="65" height="65" viewBox="0 0 65 65" fill="none" xmlns="http://www.w3.org/2000/svg">
<path d="M32.376 64.7519C14.4955 64.7519 0 50.2564 0 32.376C0 14.4955 14.4955 0 32.376 0C50.2564 0 64.7519 14.4955 64.7519 32.376C64.7519 50.2564 50.2564 64.7519 32.376 64.7519Z" fill="#E95144"/>
<path d="M36.4245 31.5309H23.3449L23.3582 35.2786H32.1767C31.1325 39.8406 27.9157 42.637 23.5927 42.637C17.9246 42.637 13.3317 38.0441 13.3317 32.376C13.3317 26.7079 17.9246 22.115 23.5927 22.115C26.2873 22.115 28.7387 23.1548 30.5705 24.8539L33.4643 22.3583C30.9245 19.8539 27.4422 18.3097 23.5927 18.3097C15.8228 18.3097 9.52637 24.6061 9.52637 32.376C9.52637 40.1459 15.8228 46.4423 23.5927 46.4423C31.0528 46.4423 36.4422 40.7521 36.4422 32.9822L36.42 31.5309H36.4245Z" fill="#FEFEFE"/>
<path d="M55.2253 31.6857H49.8226V26.2875H46.3802V31.6857H40.9775V35.1326H46.3802V40.5308H49.8226V35.1326H55.2253V31.6857Z" fill="#FEFEFE"/>
</svg>
