<svg width="34" height="33" viewBox="0 0 34 33" fill="none" xmlns="http://www.w3.org/2000/svg">
<g id="Shape 7">
<path id="Vector" d="M33.0511 27.7279L26.9167 21.7816C28.8001 18.8881 29.518 15.4234 28.9332 12.0493C28.3484 8.67523 26.5019 5.62818 23.7464 3.49006C20.991 1.35194 17.5195 0.272596 13.9951 0.458149C10.4707 0.643702 7.14034 2.08115 4.63997 4.49598C2.1396 6.91081 0.644471 10.1338 0.440116 13.5494C0.235761 16.965 1.33651 20.334 3.53214 23.0128C5.72776 25.6916 8.86441 27.4926 12.343 28.0718C15.8217 28.6511 19.3985 27.968 22.3905 26.153L28.5249 32.1153C28.7575 32.3418 29.034 32.5214 29.3384 32.644C29.6429 32.7666 29.9693 32.8298 30.2989 32.8298C30.6286 32.8298 30.955 32.7666 31.2594 32.644C31.5639 32.5214 31.8403 32.3418 32.0729 32.1153L33.0511 31.1671C33.2847 30.9417 33.4701 30.6737 33.5965 30.3786C33.723 30.0835 33.7881 29.7671 33.7881 29.4475C33.7881 29.128 33.723 28.8116 33.5965 28.5165C33.4701 28.2214 33.2847 27.9534 33.0511 27.7279ZM14.8137 24.5137C12.761 24.5137 10.7544 23.9237 9.04763 22.8182C7.34085 21.7127 6.01058 20.1415 5.22504 18.3032C4.4395 16.4649 4.23397 14.4421 4.63443 12.4905C5.0349 10.539 6.02337 8.74636 7.47486 7.33938C8.92635 5.93239 10.7757 4.97423 12.789 4.58604C14.8022 4.19785 16.889 4.39709 18.7855 5.15854C20.682 5.91999 22.3029 7.20947 23.4433 8.86391C24.5837 10.5184 25.1925 12.4634 25.1925 14.4532C25.1749 17.1144 24.0686 19.66 22.1165 21.5312C20.1644 23.4024 17.5259 24.4462 14.7806 24.4334L14.8137 24.5137Z" fill="#D1D1D1"/>
</g>
</svg>
